<mxfile host="app.diagrams.net" modified="2021-11-11T13:51:45.998Z" agent="5.0 (Windows NT 10.0; Win64; x64) AppleWebKit/537.36 (KHTML, like Gecko) Chrome/94.0.4606.81 Safari/537.36 OPR/80.0.4170.91" etag="qjQsw5SlEWx_q-cExXlb" version="15.7.0" type="github">
  <diagram id="UOqkufk7XXMxplqXsK38" name="Page-1">
    <mxGraphModel dx="2762" dy="1574" grid="1" gridSize="10" guides="1" tooltips="1" connect="1" arrows="1" fold="1" page="1" pageScale="1" pageWidth="850" pageHeight="1100" math="0" shadow="0">
      <root>
        <mxCell id="0" />
        <mxCell id="1" parent="0" />
        <mxCell id="SIjMMrmNhATLVY4MGX8Y-2" style="edgeStyle=orthogonalEdgeStyle;rounded=0;orthogonalLoop=1;jettySize=auto;html=1;fontFamily=Times New Roman;fontSize=14;endArrow=none;endFill=0;" edge="1" parent="1" source="SIjMMrmNhATLVY4MGX8Y-1">
          <mxGeometry relative="1" as="geometry">
            <mxPoint x="425" y="110" as="targetPoint" />
          </mxGeometry>
        </mxCell>
        <mxCell id="SIjMMrmNhATLVY4MGX8Y-1" value="Вход" style="strokeWidth=1;html=1;shape=mxgraph.flowchart.terminator;whiteSpace=wrap;fontFamily=Times New Roman;fontSize=14;" vertex="1" parent="1">
          <mxGeometry x="365" y="30" width="120" height="60" as="geometry" />
        </mxCell>
        <mxCell id="SIjMMrmNhATLVY4MGX8Y-5" style="edgeStyle=orthogonalEdgeStyle;rounded=0;orthogonalLoop=1;jettySize=auto;html=1;entryX=0.5;entryY=0;entryDx=0;entryDy=0;fontFamily=Times New Roman;fontSize=14;endArrow=none;endFill=0;" edge="1" parent="1" source="SIjMMrmNhATLVY4MGX8Y-3" target="SIjMMrmNhATLVY4MGX8Y-4">
          <mxGeometry relative="1" as="geometry" />
        </mxCell>
        <mxCell id="SIjMMrmNhATLVY4MGX8Y-3" value="Ввод N" style="shape=parallelogram;perimeter=parallelogramPerimeter;whiteSpace=wrap;html=1;fixedSize=1;fontFamily=Times New Roman;fontSize=14;strokeWidth=1;" vertex="1" parent="1">
          <mxGeometry x="350" y="110" width="150" height="60" as="geometry" />
        </mxCell>
        <mxCell id="SIjMMrmNhATLVY4MGX8Y-4" value="NumToCheck := 4" style="rounded=0;whiteSpace=wrap;html=1;fontFamily=Times New Roman;fontSize=14;strokeWidth=1;" vertex="1" parent="1">
          <mxGeometry x="365" y="190" width="120" height="60" as="geometry" />
        </mxCell>
        <mxCell id="SIjMMrmNhATLVY4MGX8Y-8" style="edgeStyle=orthogonalEdgeStyle;rounded=0;orthogonalLoop=1;jettySize=auto;html=1;entryX=0.5;entryY=0;entryDx=0;entryDy=0;fontFamily=Times New Roman;fontSize=14;endArrow=none;endFill=0;" edge="1" parent="1" target="SIjMMrmNhATLVY4MGX8Y-9">
          <mxGeometry relative="1" as="geometry">
            <mxPoint x="425" y="250" as="sourcePoint" />
          </mxGeometry>
        </mxCell>
        <mxCell id="SIjMMrmNhATLVY4MGX8Y-9" value="IsSmithNumber := False" style="rounded=0;whiteSpace=wrap;html=1;fontFamily=Times New Roman;fontSize=14;strokeWidth=1;" vertex="1" parent="1">
          <mxGeometry x="365" y="270" width="120" height="60" as="geometry" />
        </mxCell>
        <mxCell id="SIjMMrmNhATLVY4MGX8Y-10" style="edgeStyle=orthogonalEdgeStyle;rounded=0;orthogonalLoop=1;jettySize=auto;html=1;entryX=0.5;entryY=0;entryDx=0;entryDy=0;fontFamily=Times New Roman;fontSize=14;endArrow=none;endFill=0;" edge="1" parent="1" target="SIjMMrmNhATLVY4MGX8Y-11">
          <mxGeometry relative="1" as="geometry">
            <mxPoint x="425" y="330" as="sourcePoint" />
          </mxGeometry>
        </mxCell>
        <mxCell id="SIjMMrmNhATLVY4MGX8Y-12" style="edgeStyle=orthogonalEdgeStyle;rounded=0;orthogonalLoop=1;jettySize=auto;html=1;fontFamily=Times New Roman;fontSize=14;endArrow=none;endFill=0;" edge="1" parent="1" source="SIjMMrmNhATLVY4MGX8Y-11">
          <mxGeometry relative="1" as="geometry">
            <mxPoint x="425" y="430" as="targetPoint" />
          </mxGeometry>
        </mxCell>
        <mxCell id="SIjMMrmNhATLVY4MGX8Y-11" value="CurrNum := 1" style="rounded=0;whiteSpace=wrap;html=1;fontFamily=Times New Roman;fontSize=14;strokeWidth=1;" vertex="1" parent="1">
          <mxGeometry x="365" y="350" width="120" height="60" as="geometry" />
        </mxCell>
        <mxCell id="SIjMMrmNhATLVY4MGX8Y-15" style="edgeStyle=orthogonalEdgeStyle;rounded=0;orthogonalLoop=1;jettySize=auto;html=1;fontFamily=Times New Roman;fontSize=14;endArrow=none;endFill=0;" edge="1" parent="1" source="SIjMMrmNhATLVY4MGX8Y-13">
          <mxGeometry relative="1" as="geometry">
            <mxPoint x="425" y="530" as="targetPoint" />
          </mxGeometry>
        </mxCell>
        <mxCell id="SIjMMrmNhATLVY4MGX8Y-25" style="edgeStyle=orthogonalEdgeStyle;rounded=0;orthogonalLoop=1;jettySize=auto;html=1;fontFamily=Times New Roman;fontSize=13;endArrow=open;endFill=0;" edge="1" parent="1" source="SIjMMrmNhATLVY4MGX8Y-13">
          <mxGeometry relative="1" as="geometry">
            <mxPoint x="600" y="530" as="targetPoint" />
            <Array as="points">
              <mxPoint x="600" y="470" />
            </Array>
          </mxGeometry>
        </mxCell>
        <mxCell id="SIjMMrmNhATLVY4MGX8Y-13" value="CurrNum &amp;lt;= N" style="rhombus;whiteSpace=wrap;html=1;fontFamily=Times New Roman;fontSize=14;strokeWidth=1;" vertex="1" parent="1">
          <mxGeometry x="365" y="430" width="120" height="80" as="geometry" />
        </mxCell>
        <mxCell id="SIjMMrmNhATLVY4MGX8Y-18" style="edgeStyle=orthogonalEdgeStyle;rounded=0;orthogonalLoop=1;jettySize=auto;html=1;fontFamily=Times New Roman;fontSize=13;endArrow=none;endFill=0;entryX=0.5;entryY=0;entryDx=0;entryDy=0;entryPerimeter=0;" edge="1" parent="1" source="SIjMMrmNhATLVY4MGX8Y-16" target="SIjMMrmNhATLVY4MGX8Y-20">
          <mxGeometry relative="1" as="geometry">
            <mxPoint x="425" y="610" as="targetPoint" />
          </mxGeometry>
        </mxCell>
        <mxCell id="SIjMMrmNhATLVY4MGX8Y-16" value="&lt;font style=&quot;font-size: 13px&quot;&gt;Вывод CurrSuperSmithNum&lt;/font&gt;" style="shape=parallelogram;perimeter=parallelogramPerimeter;whiteSpace=wrap;html=1;fixedSize=1;fontFamily=Times New Roman;fontSize=14;strokeWidth=1;spacingLeft=-8;" vertex="1" parent="1">
          <mxGeometry x="355" y="530" width="140" height="60" as="geometry" />
        </mxCell>
        <mxCell id="SIjMMrmNhATLVY4MGX8Y-20" value="Выход&lt;br&gt;" style="strokeWidth=1;html=1;shape=mxgraph.flowchart.terminator;whiteSpace=wrap;fontFamily=Times New Roman;fontSize=14;" vertex="1" parent="1">
          <mxGeometry x="365" y="690" width="120" height="60" as="geometry" />
        </mxCell>
        <mxCell id="SIjMMrmNhATLVY4MGX8Y-23" value="Нет" style="text;html=1;strokeColor=none;fillColor=none;align=center;verticalAlign=middle;whiteSpace=wrap;rounded=0;fontFamily=Times New Roman;fontSize=13;" vertex="1" parent="1">
          <mxGeometry x="425" y="490" width="60" height="30" as="geometry" />
        </mxCell>
        <mxCell id="SIjMMrmNhATLVY4MGX8Y-24" value="Да" style="text;html=1;strokeColor=none;fillColor=none;align=center;verticalAlign=middle;whiteSpace=wrap;rounded=0;fontFamily=Times New Roman;fontSize=13;" vertex="1" parent="1">
          <mxGeometry x="470" y="420" width="60" height="30" as="geometry" />
        </mxCell>
        <mxCell id="SIjMMrmNhATLVY4MGX8Y-30" value="SumOfPFD1 := 0" style="rounded=0;whiteSpace=wrap;html=1;fontFamily=Times New Roman;fontSize=14;strokeWidth=1;" vertex="1" parent="1">
          <mxGeometry x="540" y="530" width="120" height="60" as="geometry" />
        </mxCell>
        <mxCell id="SIjMMrmNhATLVY4MGX8Y-31" style="edgeStyle=orthogonalEdgeStyle;rounded=0;orthogonalLoop=1;jettySize=auto;html=1;entryX=0.5;entryY=0;entryDx=0;entryDy=0;fontFamily=Times New Roman;fontSize=14;endArrow=none;endFill=0;" edge="1" parent="1" target="SIjMMrmNhATLVY4MGX8Y-32">
          <mxGeometry relative="1" as="geometry">
            <mxPoint x="600" y="590" as="sourcePoint" />
          </mxGeometry>
        </mxCell>
        <mxCell id="SIjMMrmNhATLVY4MGX8Y-33" style="edgeStyle=orthogonalEdgeStyle;rounded=0;orthogonalLoop=1;jettySize=auto;html=1;fontFamily=Times New Roman;fontSize=13;endArrow=none;endFill=0;entryX=0.5;entryY=0;entryDx=0;entryDy=0;" edge="1" parent="1" source="SIjMMrmNhATLVY4MGX8Y-32" target="SIjMMrmNhATLVY4MGX8Y-34">
          <mxGeometry relative="1" as="geometry">
            <mxPoint x="600" y="1030" as="targetPoint" />
          </mxGeometry>
        </mxCell>
        <mxCell id="SIjMMrmNhATLVY4MGX8Y-32" value="CurrNumModif := NumToCheck" style="rounded=0;whiteSpace=wrap;html=1;fontFamily=Times New Roman;fontSize=14;strokeWidth=1;" vertex="1" parent="1">
          <mxGeometry x="540" y="610" width="120" height="60" as="geometry" />
        </mxCell>
        <mxCell id="SIjMMrmNhATLVY4MGX8Y-34" value="1" style="ellipse;whiteSpace=wrap;html=1;aspect=fixed;fontFamily=Times New Roman;fontSize=13;strokeWidth=1;" vertex="1" parent="1">
          <mxGeometry x="570" y="690" width="60" height="60" as="geometry" />
        </mxCell>
        <mxCell id="SIjMMrmNhATLVY4MGX8Y-36" style="edgeStyle=orthogonalEdgeStyle;rounded=0;orthogonalLoop=1;jettySize=auto;html=1;fontFamily=Times New Roman;fontSize=13;endArrow=none;endFill=0;" edge="1" parent="1" source="SIjMMrmNhATLVY4MGX8Y-35">
          <mxGeometry relative="1" as="geometry">
            <mxPoint x="165" y="1230" as="targetPoint" />
          </mxGeometry>
        </mxCell>
        <mxCell id="SIjMMrmNhATLVY4MGX8Y-35" value="1" style="ellipse;whiteSpace=wrap;html=1;aspect=fixed;fontFamily=Times New Roman;fontSize=13;strokeWidth=1;" vertex="1" parent="1">
          <mxGeometry x="135" y="1150" width="60" height="60" as="geometry" />
        </mxCell>
        <mxCell id="SIjMMrmNhATLVY4MGX8Y-54" style="edgeStyle=orthogonalEdgeStyle;rounded=0;orthogonalLoop=1;jettySize=auto;html=1;entryX=0.5;entryY=0;entryDx=0;entryDy=0;fontFamily=Times New Roman;fontSize=13;endArrow=none;endFill=0;" edge="1" parent="1" source="SIjMMrmNhATLVY4MGX8Y-39" target="SIjMMrmNhATLVY4MGX8Y-45">
          <mxGeometry relative="1" as="geometry" />
        </mxCell>
        <mxCell id="SIjMMrmNhATLVY4MGX8Y-39" value="I &amp;lt; sqrt(NumToCheck)" style="rhombus;whiteSpace=wrap;html=1;fontFamily=Times New Roman;fontSize=13;strokeWidth=1;spacingBottom=17;" vertex="1" parent="1">
          <mxGeometry x="105" y="1310" width="120" height="80" as="geometry" />
        </mxCell>
        <mxCell id="SIjMMrmNhATLVY4MGX8Y-42" style="edgeStyle=orthogonalEdgeStyle;rounded=0;orthogonalLoop=1;jettySize=auto;html=1;entryX=0.5;entryY=0;entryDx=0;entryDy=0;fontFamily=Times New Roman;fontSize=13;endArrow=none;endFill=0;" edge="1" parent="1" source="SIjMMrmNhATLVY4MGX8Y-41" target="SIjMMrmNhATLVY4MGX8Y-39">
          <mxGeometry relative="1" as="geometry" />
        </mxCell>
        <mxCell id="SIjMMrmNhATLVY4MGX8Y-41" value="I := 2" style="rounded=0;whiteSpace=wrap;html=1;fontFamily=Times New Roman;fontSize=13;strokeWidth=1;" vertex="1" parent="1">
          <mxGeometry x="105" y="1230" width="120" height="60" as="geometry" />
        </mxCell>
        <mxCell id="SIjMMrmNhATLVY4MGX8Y-51" style="edgeStyle=orthogonalEdgeStyle;rounded=0;orthogonalLoop=1;jettySize=auto;html=1;entryX=0.5;entryY=0;entryDx=0;entryDy=0;fontFamily=Times New Roman;fontSize=13;endArrow=none;endFill=0;" edge="1" parent="1" source="SIjMMrmNhATLVY4MGX8Y-45" target="SIjMMrmNhATLVY4MGX8Y-48">
          <mxGeometry relative="1" as="geometry" />
        </mxCell>
        <mxCell id="SIjMMrmNhATLVY4MGX8Y-45" value="CurrNumModif&lt;br&gt;&amp;nbsp;mod I = 0" style="rhombus;whiteSpace=wrap;html=1;fontFamily=Times New Roman;fontSize=13;strokeWidth=1;spacingBottom=-3;spacingLeft=4;spacingRight=5;" vertex="1" parent="1">
          <mxGeometry x="105" y="1410" width="120" height="80" as="geometry" />
        </mxCell>
        <mxCell id="SIjMMrmNhATLVY4MGX8Y-46" style="edgeStyle=orthogonalEdgeStyle;rounded=0;orthogonalLoop=1;jettySize=auto;html=1;fontFamily=Times New Roman;fontSize=13;endArrow=open;endFill=0;" edge="1" parent="1">
          <mxGeometry relative="1" as="geometry">
            <mxPoint x="340" y="1510" as="targetPoint" />
            <mxPoint x="225" y="1450" as="sourcePoint" />
            <Array as="points">
              <mxPoint x="340" y="1450" />
            </Array>
          </mxGeometry>
        </mxCell>
        <mxCell id="SIjMMrmNhATLVY4MGX8Y-50" style="edgeStyle=orthogonalEdgeStyle;rounded=0;orthogonalLoop=1;jettySize=auto;html=1;entryX=0.5;entryY=0;entryDx=0;entryDy=0;fontFamily=Times New Roman;fontSize=13;endArrow=none;endFill=0;" edge="1" parent="1" source="SIjMMrmNhATLVY4MGX8Y-48" target="SIjMMrmNhATLVY4MGX8Y-49">
          <mxGeometry relative="1" as="geometry" />
        </mxCell>
        <mxCell id="SIjMMrmNhATLVY4MGX8Y-48" value="Sum OfDigits2 := SumOfDigits2 + J mod 10" style="rounded=0;whiteSpace=wrap;html=1;fontFamily=Times New Roman;fontSize=13;strokeWidth=1;" vertex="1" parent="1">
          <mxGeometry x="105" y="1510" width="120" height="60" as="geometry" />
        </mxCell>
        <mxCell id="SIjMMrmNhATLVY4MGX8Y-57" style="edgeStyle=orthogonalEdgeStyle;rounded=0;orthogonalLoop=1;jettySize=auto;html=1;fontFamily=Times New Roman;fontSize=13;endArrow=open;endFill=0;entryX=0;entryY=0.75;entryDx=0;entryDy=0;" edge="1" parent="1" source="SIjMMrmNhATLVY4MGX8Y-49" target="SIjMMrmNhATLVY4MGX8Y-55">
          <mxGeometry relative="1" as="geometry">
            <mxPoint x="140" y="1403" as="targetPoint" />
            <Array as="points">
              <mxPoint x="165" y="1670" />
              <mxPoint x="70" y="1670" />
              <mxPoint x="70" y="1403" />
            </Array>
          </mxGeometry>
        </mxCell>
        <mxCell id="SIjMMrmNhATLVY4MGX8Y-49" value="J := J div 10" style="rounded=0;whiteSpace=wrap;html=1;fontFamily=Times New Roman;fontSize=13;strokeWidth=1;" vertex="1" parent="1">
          <mxGeometry x="105" y="1590" width="120" height="60" as="geometry" />
        </mxCell>
        <mxCell id="SIjMMrmNhATLVY4MGX8Y-52" value="Да" style="text;html=1;strokeColor=none;fillColor=none;align=center;verticalAlign=middle;whiteSpace=wrap;rounded=0;fontFamily=Times New Roman;fontSize=13;" vertex="1" parent="1">
          <mxGeometry x="160" y="1470" width="60" height="30" as="geometry" />
        </mxCell>
        <mxCell id="SIjMMrmNhATLVY4MGX8Y-53" value="Нет" style="text;html=1;strokeColor=none;fillColor=none;align=center;verticalAlign=middle;whiteSpace=wrap;rounded=0;fontFamily=Times New Roman;fontSize=13;" vertex="1" parent="1">
          <mxGeometry x="210" y="1410" width="60" height="30" as="geometry" />
        </mxCell>
        <mxCell id="SIjMMrmNhATLVY4MGX8Y-55" value="Да" style="text;html=1;strokeColor=none;fillColor=none;align=center;verticalAlign=middle;whiteSpace=wrap;rounded=0;fontFamily=Times New Roman;fontSize=13;" vertex="1" parent="1">
          <mxGeometry x="165" y="1380" width="60" height="30" as="geometry" />
        </mxCell>
        <mxCell id="SIjMMrmNhATLVY4MGX8Y-56" value="Нет" style="text;html=1;strokeColor=none;fillColor=none;align=center;verticalAlign=middle;whiteSpace=wrap;rounded=0;fontFamily=Times New Roman;fontSize=13;" vertex="1" parent="1">
          <mxGeometry x="210" y="1320" width="60" height="30" as="geometry" />
        </mxCell>
        <mxCell id="SIjMMrmNhATLVY4MGX8Y-62" style="edgeStyle=orthogonalEdgeStyle;rounded=0;orthogonalLoop=1;jettySize=auto;html=1;entryX=0.5;entryY=0;entryDx=0;entryDy=0;fontFamily=Times New Roman;fontSize=13;endArrow=none;endFill=0;" edge="1" parent="1" source="SIjMMrmNhATLVY4MGX8Y-63" target="SIjMMrmNhATLVY4MGX8Y-64">
          <mxGeometry relative="1" as="geometry" />
        </mxCell>
        <mxCell id="SIjMMrmNhATLVY4MGX8Y-63" value="CurrNumModif := CurrNumModif div I" style="rounded=0;whiteSpace=wrap;html=1;fontFamily=Times New Roman;fontSize=13;strokeWidth=1;" vertex="1" parent="1">
          <mxGeometry x="280" y="1510" width="120" height="60" as="geometry" />
        </mxCell>
        <mxCell id="SIjMMrmNhATLVY4MGX8Y-65" style="edgeStyle=orthogonalEdgeStyle;rounded=0;orthogonalLoop=1;jettySize=auto;html=1;fontFamily=Times New Roman;fontSize=13;endArrow=open;endFill=0;" edge="1" parent="1" source="SIjMMrmNhATLVY4MGX8Y-64">
          <mxGeometry relative="1" as="geometry">
            <mxPoint x="165" y="1300" as="targetPoint" />
            <Array as="points">
              <mxPoint x="340" y="1700" />
              <mxPoint x="40" y="1700" />
              <mxPoint x="40" y="1300" />
            </Array>
          </mxGeometry>
        </mxCell>
        <mxCell id="SIjMMrmNhATLVY4MGX8Y-64" value="SumOfPFD1 := SumOfPFD1 + SumOfDigits2" style="rounded=0;whiteSpace=wrap;html=1;fontFamily=Times New Roman;fontSize=13;strokeWidth=1;" vertex="1" parent="1">
          <mxGeometry x="280" y="1590" width="120" height="60" as="geometry" />
        </mxCell>
        <mxCell id="SIjMMrmNhATLVY4MGX8Y-66" style="edgeStyle=orthogonalEdgeStyle;rounded=0;orthogonalLoop=1;jettySize=auto;html=1;fontFamily=Times New Roman;fontSize=13;endArrow=open;endFill=0;exitX=0.25;exitY=1;exitDx=0;exitDy=0;" edge="1" parent="1" source="SIjMMrmNhATLVY4MGX8Y-56">
          <mxGeometry relative="1" as="geometry">
            <mxPoint x="520" y="1410" as="targetPoint" />
            <mxPoint x="250" y="1350" as="sourcePoint" />
            <Array as="points">
              <mxPoint x="520" y="1350" />
            </Array>
          </mxGeometry>
        </mxCell>
        <mxCell id="SIjMMrmNhATLVY4MGX8Y-73" style="edgeStyle=orthogonalEdgeStyle;rounded=0;orthogonalLoop=1;jettySize=auto;html=1;fontFamily=Times New Roman;fontSize=13;endArrow=none;endFill=0;" edge="1" parent="1" source="SIjMMrmNhATLVY4MGX8Y-68">
          <mxGeometry relative="1" as="geometry">
            <mxPoint x="520" y="1510" as="targetPoint" />
          </mxGeometry>
        </mxCell>
        <mxCell id="SIjMMrmNhATLVY4MGX8Y-68" value="CurrNumModif &amp;lt;&amp;gt; 1 and SumOfPFD1 &amp;lt;&amp;gt; 0" style="rhombus;whiteSpace=wrap;html=1;fontFamily=Times New Roman;fontSize=13;strokeWidth=1;spacingBottom=-3;" vertex="1" parent="1">
          <mxGeometry x="430" y="1410" width="180" height="80" as="geometry" />
        </mxCell>
        <mxCell id="SIjMMrmNhATLVY4MGX8Y-69" style="edgeStyle=orthogonalEdgeStyle;rounded=0;orthogonalLoop=1;jettySize=auto;html=1;fontFamily=Times New Roman;fontSize=13;endArrow=open;endFill=0;" edge="1" parent="1">
          <mxGeometry relative="1" as="geometry">
            <mxPoint x="800" y="1850" as="targetPoint" />
            <mxPoint x="610" y="1450" as="sourcePoint" />
            <Array as="points">
              <mxPoint x="800" y="1450" />
              <mxPoint x="800" y="1510" />
            </Array>
          </mxGeometry>
        </mxCell>
        <mxCell id="SIjMMrmNhATLVY4MGX8Y-70" value="Да" style="text;html=1;strokeColor=none;fillColor=none;align=center;verticalAlign=middle;whiteSpace=wrap;rounded=0;fontFamily=Times New Roman;fontSize=13;" vertex="1" parent="1">
          <mxGeometry x="540" y="1480" width="40" height="30" as="geometry" />
        </mxCell>
        <mxCell id="SIjMMrmNhATLVY4MGX8Y-71" value="Нет" style="text;html=1;strokeColor=none;fillColor=none;align=center;verticalAlign=middle;whiteSpace=wrap;rounded=0;fontFamily=Times New Roman;fontSize=13;" vertex="1" parent="1">
          <mxGeometry x="595" y="1420" width="60" height="30" as="geometry" />
        </mxCell>
        <mxCell id="SIjMMrmNhATLVY4MGX8Y-74" value="SumOfDigits2 := 0" style="rounded=0;whiteSpace=wrap;html=1;fontFamily=Times New Roman;fontSize=13;strokeWidth=1;" vertex="1" parent="1">
          <mxGeometry x="460" y="1510" width="120" height="60" as="geometry" />
        </mxCell>
        <mxCell id="SIjMMrmNhATLVY4MGX8Y-84" style="edgeStyle=orthogonalEdgeStyle;rounded=0;orthogonalLoop=1;jettySize=auto;html=1;entryX=0.5;entryY=0;entryDx=0;entryDy=0;fontFamily=Times New Roman;fontSize=13;endArrow=none;endFill=0;" edge="1" parent="1" target="SIjMMrmNhATLVY4MGX8Y-86">
          <mxGeometry relative="1" as="geometry">
            <mxPoint x="520" y="1570" as="sourcePoint" />
          </mxGeometry>
        </mxCell>
        <mxCell id="SIjMMrmNhATLVY4MGX8Y-85" style="edgeStyle=orthogonalEdgeStyle;rounded=0;orthogonalLoop=1;jettySize=auto;html=1;entryX=0.5;entryY=0;entryDx=0;entryDy=0;fontFamily=Times New Roman;fontSize=13;endArrow=none;endFill=0;" edge="1" parent="1" source="SIjMMrmNhATLVY4MGX8Y-86" target="SIjMMrmNhATLVY4MGX8Y-88">
          <mxGeometry relative="1" as="geometry" />
        </mxCell>
        <mxCell id="SIjMMrmNhATLVY4MGX8Y-86" value="CurrNumModif&lt;br&gt;&amp;nbsp;&amp;gt; 0" style="rhombus;whiteSpace=wrap;html=1;fontFamily=Times New Roman;fontSize=13;strokeWidth=1;spacingBottom=-3;spacingLeft=4;spacingRight=5;" vertex="1" parent="1">
          <mxGeometry x="460" y="1590" width="120" height="80" as="geometry" />
        </mxCell>
        <mxCell id="SIjMMrmNhATLVY4MGX8Y-87" style="edgeStyle=orthogonalEdgeStyle;rounded=0;orthogonalLoop=1;jettySize=auto;html=1;entryX=0.5;entryY=0;entryDx=0;entryDy=0;fontFamily=Times New Roman;fontSize=13;endArrow=none;endFill=0;" edge="1" parent="1" source="SIjMMrmNhATLVY4MGX8Y-88" target="SIjMMrmNhATLVY4MGX8Y-90">
          <mxGeometry relative="1" as="geometry" />
        </mxCell>
        <mxCell id="SIjMMrmNhATLVY4MGX8Y-88" value="SumOfDigits2 := SumOfDigits2 + CurrNumModif mod 10" style="rounded=0;whiteSpace=wrap;html=1;fontFamily=Times New Roman;fontSize=13;strokeWidth=1;" vertex="1" parent="1">
          <mxGeometry x="460" y="1690" width="120" height="60" as="geometry" />
        </mxCell>
        <mxCell id="SIjMMrmNhATLVY4MGX8Y-89" style="edgeStyle=orthogonalEdgeStyle;rounded=0;orthogonalLoop=1;jettySize=auto;html=1;fontFamily=Times New Roman;fontSize=13;endArrow=open;endFill=0;entryX=0;entryY=0.75;entryDx=0;entryDy=0;" edge="1" parent="1" source="SIjMMrmNhATLVY4MGX8Y-90">
          <mxGeometry relative="1" as="geometry">
            <mxPoint x="520" y="1582.5" as="targetPoint" />
            <Array as="points">
              <mxPoint x="520" y="1850" />
              <mxPoint x="425" y="1850" />
              <mxPoint x="425" y="1583" />
            </Array>
          </mxGeometry>
        </mxCell>
        <mxCell id="SIjMMrmNhATLVY4MGX8Y-90" value="CurrNumModif := CurrNumModif div 10" style="rounded=0;whiteSpace=wrap;html=1;fontFamily=Times New Roman;fontSize=13;strokeWidth=1;" vertex="1" parent="1">
          <mxGeometry x="460" y="1770" width="120" height="60" as="geometry" />
        </mxCell>
        <mxCell id="SIjMMrmNhATLVY4MGX8Y-91" value="Да" style="text;html=1;strokeColor=none;fillColor=none;align=center;verticalAlign=middle;whiteSpace=wrap;rounded=0;fontFamily=Times New Roman;fontSize=13;" vertex="1" parent="1">
          <mxGeometry x="515" y="1650" width="60" height="30" as="geometry" />
        </mxCell>
        <mxCell id="SIjMMrmNhATLVY4MGX8Y-101" value="Нет" style="text;html=1;strokeColor=none;fillColor=none;align=center;verticalAlign=middle;whiteSpace=wrap;rounded=0;fontFamily=Times New Roman;fontSize=13;" vertex="1" parent="1">
          <mxGeometry x="570" y="1590" width="60" height="30" as="geometry" />
        </mxCell>
        <mxCell id="SIjMMrmNhATLVY4MGX8Y-102" style="edgeStyle=orthogonalEdgeStyle;rounded=0;orthogonalLoop=1;jettySize=auto;html=1;fontFamily=Times New Roman;fontSize=13;endArrow=open;endFill=0;" edge="1" parent="1">
          <mxGeometry relative="1" as="geometry">
            <mxPoint x="695" y="1690" as="targetPoint" />
            <mxPoint x="580" y="1630" as="sourcePoint" />
            <Array as="points">
              <mxPoint x="695" y="1630" />
            </Array>
          </mxGeometry>
        </mxCell>
        <mxCell id="SIjMMrmNhATLVY4MGX8Y-106" style="edgeStyle=orthogonalEdgeStyle;rounded=0;orthogonalLoop=1;jettySize=auto;html=1;fontFamily=Times New Roman;fontSize=13;endArrow=open;endFill=0;" edge="1" parent="1" source="SIjMMrmNhATLVY4MGX8Y-103">
          <mxGeometry relative="1" as="geometry">
            <mxPoint x="800" y="1820" as="targetPoint" />
            <Array as="points">
              <mxPoint x="700" y="1820" />
            </Array>
          </mxGeometry>
        </mxCell>
        <mxCell id="SIjMMrmNhATLVY4MGX8Y-103" value="SumOfPFD1 := SumOFPFD1 + SumOfDigits2" style="rounded=0;whiteSpace=wrap;html=1;fontFamily=Times New Roman;fontSize=13;strokeWidth=1;" vertex="1" parent="1">
          <mxGeometry x="630" y="1690" width="120" height="60" as="geometry" />
        </mxCell>
        <mxCell id="SIjMMrmNhATLVY4MGX8Y-105" value="2" style="ellipse;whiteSpace=wrap;html=1;aspect=fixed;fontFamily=Times New Roman;fontSize=13;strokeWidth=1;" vertex="1" parent="1">
          <mxGeometry x="770" y="1850" width="60" height="60" as="geometry" />
        </mxCell>
        <mxCell id="SIjMMrmNhATLVY4MGX8Y-108" style="edgeStyle=orthogonalEdgeStyle;rounded=0;orthogonalLoop=1;jettySize=auto;html=1;fontFamily=Times New Roman;fontSize=13;endArrow=none;endFill=0;" edge="1" parent="1" source="SIjMMrmNhATLVY4MGX8Y-107">
          <mxGeometry relative="1" as="geometry">
            <mxPoint x="124.94" y="2310" as="targetPoint" />
          </mxGeometry>
        </mxCell>
        <mxCell id="SIjMMrmNhATLVY4MGX8Y-107" value="2" style="ellipse;whiteSpace=wrap;html=1;aspect=fixed;fontFamily=Times New Roman;fontSize=13;strokeWidth=1;" vertex="1" parent="1">
          <mxGeometry x="94.94" y="2230" width="60" height="60" as="geometry" />
        </mxCell>
        <mxCell id="SIjMMrmNhATLVY4MGX8Y-109" value="SumOfDigits1 := 0" style="rounded=0;whiteSpace=wrap;html=1;fontFamily=Times New Roman;fontSize=13;strokeWidth=1;" vertex="1" parent="1">
          <mxGeometry x="64.94" y="2310" width="120" height="60" as="geometry" />
        </mxCell>
        <mxCell id="SIjMMrmNhATLVY4MGX8Y-110" style="edgeStyle=orthogonalEdgeStyle;rounded=0;orthogonalLoop=1;jettySize=auto;html=1;fontFamily=Times New Roman;fontSize=13;endArrow=none;endFill=0;" edge="1" parent="1">
          <mxGeometry relative="1" as="geometry">
            <mxPoint x="124.94" y="2390" as="targetPoint" />
            <mxPoint x="124.94" y="2370" as="sourcePoint" />
          </mxGeometry>
        </mxCell>
        <mxCell id="SIjMMrmNhATLVY4MGX8Y-111" value="CurrNumModif := NumToCheck" style="rounded=0;whiteSpace=wrap;html=1;fontFamily=Times New Roman;fontSize=13;strokeWidth=1;" vertex="1" parent="1">
          <mxGeometry x="64.94" y="2390" width="120" height="60" as="geometry" />
        </mxCell>
        <mxCell id="SIjMMrmNhATLVY4MGX8Y-112" style="edgeStyle=orthogonalEdgeStyle;rounded=0;orthogonalLoop=1;jettySize=auto;html=1;entryX=0.5;entryY=0;entryDx=0;entryDy=0;fontFamily=Times New Roman;fontSize=13;endArrow=none;endFill=0;" edge="1" parent="1" target="SIjMMrmNhATLVY4MGX8Y-114">
          <mxGeometry relative="1" as="geometry">
            <mxPoint x="124.94" y="2450" as="sourcePoint" />
          </mxGeometry>
        </mxCell>
        <mxCell id="SIjMMrmNhATLVY4MGX8Y-113" style="edgeStyle=orthogonalEdgeStyle;rounded=0;orthogonalLoop=1;jettySize=auto;html=1;entryX=0.5;entryY=0;entryDx=0;entryDy=0;fontFamily=Times New Roman;fontSize=13;endArrow=none;endFill=0;" edge="1" parent="1" source="SIjMMrmNhATLVY4MGX8Y-114" target="SIjMMrmNhATLVY4MGX8Y-116">
          <mxGeometry relative="1" as="geometry" />
        </mxCell>
        <mxCell id="SIjMMrmNhATLVY4MGX8Y-114" value="CurrNumModif&lt;br&gt;&amp;nbsp;&amp;gt; 0" style="rhombus;whiteSpace=wrap;html=1;fontFamily=Times New Roman;fontSize=13;strokeWidth=1;spacingBottom=-3;spacingLeft=4;spacingRight=5;" vertex="1" parent="1">
          <mxGeometry x="64.94" y="2470" width="120" height="80" as="geometry" />
        </mxCell>
        <mxCell id="SIjMMrmNhATLVY4MGX8Y-115" style="edgeStyle=orthogonalEdgeStyle;rounded=0;orthogonalLoop=1;jettySize=auto;html=1;entryX=0.5;entryY=0;entryDx=0;entryDy=0;fontFamily=Times New Roman;fontSize=13;endArrow=none;endFill=0;" edge="1" parent="1" source="SIjMMrmNhATLVY4MGX8Y-116" target="SIjMMrmNhATLVY4MGX8Y-118">
          <mxGeometry relative="1" as="geometry" />
        </mxCell>
        <mxCell id="SIjMMrmNhATLVY4MGX8Y-116" value="SumOfDigits1 := SumOfDigits1 + CurrNumModif mod 10" style="rounded=0;whiteSpace=wrap;html=1;fontFamily=Times New Roman;fontSize=13;strokeWidth=1;" vertex="1" parent="1">
          <mxGeometry x="64.94" y="2570" width="120" height="60" as="geometry" />
        </mxCell>
        <mxCell id="SIjMMrmNhATLVY4MGX8Y-117" style="edgeStyle=orthogonalEdgeStyle;rounded=0;orthogonalLoop=1;jettySize=auto;html=1;fontFamily=Times New Roman;fontSize=13;endArrow=open;endFill=0;entryX=0;entryY=0.75;entryDx=0;entryDy=0;" edge="1" parent="1" source="SIjMMrmNhATLVY4MGX8Y-118">
          <mxGeometry relative="1" as="geometry">
            <mxPoint x="124.94" y="2462.5" as="targetPoint" />
            <Array as="points">
              <mxPoint x="124.94" y="2730" />
              <mxPoint x="29.939999999999998" y="2730" />
              <mxPoint x="29.939999999999998" y="2463" />
            </Array>
          </mxGeometry>
        </mxCell>
        <mxCell id="SIjMMrmNhATLVY4MGX8Y-118" value="CurrNumModif := CurrNumModif div 10" style="rounded=0;whiteSpace=wrap;html=1;fontFamily=Times New Roman;fontSize=13;strokeWidth=1;" vertex="1" parent="1">
          <mxGeometry x="64.94" y="2650" width="120" height="60" as="geometry" />
        </mxCell>
        <mxCell id="SIjMMrmNhATLVY4MGX8Y-119" value="Да" style="text;html=1;strokeColor=none;fillColor=none;align=center;verticalAlign=middle;whiteSpace=wrap;rounded=0;fontFamily=Times New Roman;fontSize=13;" vertex="1" parent="1">
          <mxGeometry x="119.94" y="2530" width="60" height="30" as="geometry" />
        </mxCell>
        <mxCell id="SIjMMrmNhATLVY4MGX8Y-121" value="Нет" style="text;html=1;strokeColor=none;fillColor=none;align=center;verticalAlign=middle;whiteSpace=wrap;rounded=0;fontFamily=Times New Roman;fontSize=13;" vertex="1" parent="1">
          <mxGeometry x="169.94" y="2470" width="60" height="30" as="geometry" />
        </mxCell>
        <mxCell id="SIjMMrmNhATLVY4MGX8Y-122" style="edgeStyle=orthogonalEdgeStyle;rounded=0;orthogonalLoop=1;jettySize=auto;html=1;fontFamily=Times New Roman;fontSize=13;endArrow=open;endFill=0;entryX=0.5;entryY=0;entryDx=0;entryDy=0;" edge="1" parent="1" target="SIjMMrmNhATLVY4MGX8Y-124">
          <mxGeometry relative="1" as="geometry">
            <mxPoint x="299.94" y="2575" as="targetPoint" />
            <mxPoint x="185" y="2510" as="sourcePoint" />
            <Array as="points">
              <mxPoint x="305" y="2510" />
            </Array>
          </mxGeometry>
        </mxCell>
        <mxCell id="SIjMMrmNhATLVY4MGX8Y-124" value="SumOfPFD1 = SumOfDigits1" style="rhombus;whiteSpace=wrap;html=1;fontFamily=Times New Roman;fontSize=13;strokeWidth=1;spacingBottom=1;spacingLeft=4;spacingRight=5;" vertex="1" parent="1">
          <mxGeometry x="245" y="2560" width="120" height="80" as="geometry" />
        </mxCell>
        <mxCell id="SIjMMrmNhATLVY4MGX8Y-126" value="Да" style="text;html=1;strokeColor=none;fillColor=none;align=center;verticalAlign=middle;whiteSpace=wrap;rounded=0;fontFamily=Times New Roman;fontSize=13;" vertex="1" parent="1">
          <mxGeometry x="305" y="2620" width="60" height="30" as="geometry" />
        </mxCell>
        <mxCell id="SIjMMrmNhATLVY4MGX8Y-127" value="Нет" style="text;html=1;strokeColor=none;fillColor=none;align=center;verticalAlign=middle;whiteSpace=wrap;rounded=0;fontFamily=Times New Roman;fontSize=13;" vertex="1" parent="1">
          <mxGeometry x="349.94" y="2560" width="60" height="30" as="geometry" />
        </mxCell>
        <mxCell id="SIjMMrmNhATLVY4MGX8Y-128" style="edgeStyle=orthogonalEdgeStyle;rounded=0;orthogonalLoop=1;jettySize=auto;html=1;fontFamily=Times New Roman;fontSize=13;endArrow=open;endFill=0;entryX=0.5;entryY=0;entryDx=0;entryDy=0;exitX=1;exitY=0.5;exitDx=0;exitDy=0;" edge="1" parent="1" source="SIjMMrmNhATLVY4MGX8Y-124" target="SIjMMrmNhATLVY4MGX8Y-157">
          <mxGeometry relative="1" as="geometry">
            <mxPoint x="575" y="2660" as="targetPoint" />
            <mxPoint x="455" y="2610" as="sourcePoint" />
            <Array as="points">
              <mxPoint x="690" y="2600" />
            </Array>
          </mxGeometry>
        </mxCell>
        <mxCell id="SIjMMrmNhATLVY4MGX8Y-129" value="IsSmithNumber" style="rhombus;whiteSpace=wrap;html=1;fontFamily=Times New Roman;fontSize=13;strokeWidth=1;spacingBottom=1;spacingLeft=4;spacingRight=5;" vertex="1" parent="1">
          <mxGeometry x="380" y="3410" width="120" height="80" as="geometry" />
        </mxCell>
        <mxCell id="SIjMMrmNhATLVY4MGX8Y-130" value="Да" style="text;html=1;strokeColor=none;fillColor=none;align=center;verticalAlign=middle;whiteSpace=wrap;rounded=0;fontFamily=Times New Roman;fontSize=13;" vertex="1" parent="1">
          <mxGeometry x="435" y="3479.98" width="65" height="20.02" as="geometry" />
        </mxCell>
        <mxCell id="SIjMMrmNhATLVY4MGX8Y-131" value="Нет" style="text;html=1;strokeColor=none;fillColor=none;align=center;verticalAlign=middle;whiteSpace=wrap;rounded=0;fontFamily=Times New Roman;fontSize=13;" vertex="1" parent="1">
          <mxGeometry x="490" y="3410" width="60" height="30" as="geometry" />
        </mxCell>
        <mxCell id="SIjMMrmNhATLVY4MGX8Y-132" style="edgeStyle=orthogonalEdgeStyle;rounded=0;orthogonalLoop=1;jettySize=auto;html=1;fontFamily=Times New Roman;fontSize=13;endArrow=open;endFill=0;entryX=0.5;entryY=0;entryDx=0;entryDy=0;exitX=1;exitY=0.5;exitDx=0;exitDy=0;" edge="1" parent="1" source="SIjMMrmNhATLVY4MGX8Y-129" target="SIjMMrmNhATLVY4MGX8Y-133">
          <mxGeometry relative="1" as="geometry">
            <mxPoint x="625.06" y="3500" as="targetPoint" />
            <mxPoint x="505.05999999999995" y="3450" as="sourcePoint" />
            <Array as="points">
              <mxPoint x="625" y="3450" />
            </Array>
          </mxGeometry>
        </mxCell>
        <mxCell id="SIjMMrmNhATLVY4MGX8Y-141" style="edgeStyle=orthogonalEdgeStyle;rounded=0;orthogonalLoop=1;jettySize=auto;html=1;entryX=0.5;entryY=0;entryDx=0;entryDy=0;fontFamily=Times New Roman;fontSize=13;endArrow=none;endFill=0;" edge="1" parent="1" source="SIjMMrmNhATLVY4MGX8Y-133">
          <mxGeometry relative="1" as="geometry">
            <mxPoint x="625" y="3810" as="targetPoint" />
          </mxGeometry>
        </mxCell>
        <mxCell id="SIjMMrmNhATLVY4MGX8Y-133" value="NumToCheck := NumToCheck + 1" style="rounded=0;whiteSpace=wrap;html=1;fontFamily=Times New Roman;fontSize=13;strokeWidth=1;" vertex="1" parent="1">
          <mxGeometry x="565" y="3730" width="120" height="60" as="geometry" />
        </mxCell>
        <mxCell id="SIjMMrmNhATLVY4MGX8Y-134" style="edgeStyle=orthogonalEdgeStyle;rounded=0;orthogonalLoop=1;jettySize=auto;html=1;entryX=0.5;entryY=0;entryDx=0;entryDy=0;fontFamily=Times New Roman;fontSize=13;endArrow=none;endFill=0;" edge="1" parent="1" target="SIjMMrmNhATLVY4MGX8Y-136">
          <mxGeometry relative="1" as="geometry">
            <mxPoint x="439.9423529411765" y="3490.001568627451" as="sourcePoint" />
          </mxGeometry>
        </mxCell>
        <mxCell id="SIjMMrmNhATLVY4MGX8Y-135" style="edgeStyle=orthogonalEdgeStyle;rounded=0;orthogonalLoop=1;jettySize=auto;html=1;entryX=0.5;entryY=0;entryDx=0;entryDy=0;fontFamily=Times New Roman;fontSize=13;endArrow=none;endFill=0;" edge="1" parent="1" source="SIjMMrmNhATLVY4MGX8Y-136" target="SIjMMrmNhATLVY4MGX8Y-137">
          <mxGeometry relative="1" as="geometry" />
        </mxCell>
        <mxCell id="SIjMMrmNhATLVY4MGX8Y-136" value="NumToCheck := SavedNumToCheck" style="rounded=0;whiteSpace=wrap;html=1;fontFamily=Times New Roman;fontSize=13;strokeWidth=1;" vertex="1" parent="1">
          <mxGeometry x="380" y="3510.04" width="120" height="60" as="geometry" />
        </mxCell>
        <mxCell id="SIjMMrmNhATLVY4MGX8Y-138" style="edgeStyle=orthogonalEdgeStyle;rounded=0;orthogonalLoop=1;jettySize=auto;html=1;fontFamily=Times New Roman;fontSize=13;endArrow=open;endFill=0;" edge="1" parent="1" source="SIjMMrmNhATLVY4MGX8Y-137">
          <mxGeometry relative="1" as="geometry">
            <mxPoint x="625" y="3670" as="targetPoint" />
            <Array as="points">
              <mxPoint x="440" y="3670" />
              <mxPoint x="625" y="3670" />
            </Array>
          </mxGeometry>
        </mxCell>
        <mxCell id="SIjMMrmNhATLVY4MGX8Y-137" value="IsSmithNumber := False" style="rounded=0;whiteSpace=wrap;html=1;fontFamily=Times New Roman;fontSize=13;strokeWidth=1;" vertex="1" parent="1">
          <mxGeometry x="380" y="3590.04" width="120" height="60" as="geometry" />
        </mxCell>
        <mxCell id="SIjMMrmNhATLVY4MGX8Y-139" value="5" style="ellipse;whiteSpace=wrap;html=1;aspect=fixed;fontFamily=Times New Roman;fontSize=13;strokeWidth=1;" vertex="1" parent="1">
          <mxGeometry x="595" y="3809.98" width="60" height="60" as="geometry" />
        </mxCell>
        <mxCell id="SIjMMrmNhATLVY4MGX8Y-150" style="edgeStyle=orthogonalEdgeStyle;rounded=0;orthogonalLoop=1;jettySize=auto;html=1;fontFamily=Times New Roman;fontSize=13;endArrow=none;endFill=0;" edge="1" parent="1" source="SIjMMrmNhATLVY4MGX8Y-142" target="SIjMMrmNhATLVY4MGX8Y-124">
          <mxGeometry relative="1" as="geometry" />
        </mxCell>
        <mxCell id="SIjMMrmNhATLVY4MGX8Y-142" value="IsSmithNumber" style="rhombus;whiteSpace=wrap;html=1;fontFamily=Times New Roman;fontSize=13;strokeWidth=1;spacingBottom=1;spacingLeft=4;spacingRight=5;" vertex="1" parent="1">
          <mxGeometry x="245" y="2660.02" width="120" height="80" as="geometry" />
        </mxCell>
        <mxCell id="SIjMMrmNhATLVY4MGX8Y-143" value="Да" style="text;html=1;strokeColor=none;fillColor=none;align=center;verticalAlign=middle;whiteSpace=wrap;rounded=0;fontFamily=Times New Roman;fontSize=13;" vertex="1" parent="1">
          <mxGeometry x="305" y="2720.02" width="60" height="30" as="geometry" />
        </mxCell>
        <mxCell id="SIjMMrmNhATLVY4MGX8Y-144" style="edgeStyle=orthogonalEdgeStyle;rounded=0;orthogonalLoop=1;jettySize=auto;html=1;entryX=0.5;entryY=0;entryDx=0;entryDy=0;fontFamily=Times New Roman;fontSize=13;endArrow=none;endFill=0;" edge="1" parent="1" target="SIjMMrmNhATLVY4MGX8Y-146">
          <mxGeometry relative="1" as="geometry">
            <mxPoint x="304.9423529411765" y="2740.021568627451" as="sourcePoint" />
          </mxGeometry>
        </mxCell>
        <mxCell id="SIjMMrmNhATLVY4MGX8Y-145" style="edgeStyle=orthogonalEdgeStyle;rounded=0;orthogonalLoop=1;jettySize=auto;html=1;entryX=0.5;entryY=0;entryDx=0;entryDy=0;fontFamily=Times New Roman;fontSize=13;endArrow=none;endFill=0;" edge="1" parent="1" source="SIjMMrmNhATLVY4MGX8Y-146" target="SIjMMrmNhATLVY4MGX8Y-147">
          <mxGeometry relative="1" as="geometry" />
        </mxCell>
        <mxCell id="SIjMMrmNhATLVY4MGX8Y-146" value="CurrSupSmithNum := SavedNumToCheck" style="rounded=0;whiteSpace=wrap;html=1;fontFamily=Times New Roman;fontSize=13;strokeWidth=1;" vertex="1" parent="1">
          <mxGeometry x="245" y="2760.06" width="120" height="60" as="geometry" />
        </mxCell>
        <mxCell id="SIjMMrmNhATLVY4MGX8Y-147" value="NumToCheck := SavedNumToCheck" style="rounded=0;whiteSpace=wrap;html=1;fontFamily=Times New Roman;fontSize=13;strokeWidth=1;" vertex="1" parent="1">
          <mxGeometry x="245" y="2840.06" width="120" height="60" as="geometry" />
        </mxCell>
        <mxCell id="SIjMMrmNhATLVY4MGX8Y-151" style="edgeStyle=orthogonalEdgeStyle;rounded=0;orthogonalLoop=1;jettySize=auto;html=1;entryX=0.5;entryY=0;entryDx=0;entryDy=0;fontFamily=Times New Roman;fontSize=13;endArrow=none;endFill=0;" edge="1" parent="1" target="SIjMMrmNhATLVY4MGX8Y-152">
          <mxGeometry relative="1" as="geometry">
            <mxPoint x="305" y="2899" as="sourcePoint" />
          </mxGeometry>
        </mxCell>
        <mxCell id="SIjMMrmNhATLVY4MGX8Y-152" value="NumToCheck := NumToCheck + 1" style="rounded=0;whiteSpace=wrap;html=1;fontFamily=Times New Roman;fontSize=13;strokeWidth=1;" vertex="1" parent="1">
          <mxGeometry x="245" y="2919" width="120" height="60" as="geometry" />
        </mxCell>
        <mxCell id="SIjMMrmNhATLVY4MGX8Y-153" style="edgeStyle=orthogonalEdgeStyle;rounded=0;orthogonalLoop=1;jettySize=auto;html=1;entryX=0.5;entryY=0;entryDx=0;entryDy=0;fontFamily=Times New Roman;fontSize=13;endArrow=none;endFill=0;" edge="1" parent="1" target="SIjMMrmNhATLVY4MGX8Y-154">
          <mxGeometry relative="1" as="geometry">
            <mxPoint x="305" y="2979" as="sourcePoint" />
          </mxGeometry>
        </mxCell>
        <mxCell id="SIjMMrmNhATLVY4MGX8Y-175" style="edgeStyle=orthogonalEdgeStyle;rounded=0;orthogonalLoop=1;jettySize=auto;html=1;fontFamily=Times New Roman;fontSize=13;endArrow=open;endFill=0;" edge="1" parent="1" source="SIjMMrmNhATLVY4MGX8Y-154">
          <mxGeometry relative="1" as="geometry">
            <mxPoint x="485" y="3150" as="targetPoint" />
            <Array as="points">
              <mxPoint x="305" y="3150" />
            </Array>
          </mxGeometry>
        </mxCell>
        <mxCell id="SIjMMrmNhATLVY4MGX8Y-154" value="IsSmithNumber := False" style="rounded=0;whiteSpace=wrap;html=1;fontFamily=Times New Roman;fontSize=13;strokeWidth=1;" vertex="1" parent="1">
          <mxGeometry x="245" y="2999" width="120" height="60" as="geometry" />
        </mxCell>
        <mxCell id="SIjMMrmNhATLVY4MGX8Y-157" value="4" style="ellipse;whiteSpace=wrap;html=1;aspect=fixed;fontFamily=Times New Roman;fontSize=13;strokeWidth=1;" vertex="1" parent="1">
          <mxGeometry x="660" y="3170" width="60" height="60" as="geometry" />
        </mxCell>
        <mxCell id="SIjMMrmNhATLVY4MGX8Y-159" style="edgeStyle=orthogonalEdgeStyle;rounded=0;orthogonalLoop=1;jettySize=auto;html=1;entryX=0.5;entryY=0;entryDx=0;entryDy=0;fontFamily=Times New Roman;fontSize=13;endArrow=none;endFill=0;" edge="1" parent="1" source="SIjMMrmNhATLVY4MGX8Y-158" target="SIjMMrmNhATLVY4MGX8Y-129">
          <mxGeometry relative="1" as="geometry" />
        </mxCell>
        <mxCell id="SIjMMrmNhATLVY4MGX8Y-158" value="4" style="ellipse;whiteSpace=wrap;html=1;aspect=fixed;fontFamily=Times New Roman;fontSize=13;strokeWidth=1;" vertex="1" parent="1">
          <mxGeometry x="410" y="3330" width="60" height="60" as="geometry" />
        </mxCell>
        <mxCell id="SIjMMrmNhATLVY4MGX8Y-160" style="edgeStyle=orthogonalEdgeStyle;rounded=0;orthogonalLoop=1;jettySize=auto;html=1;fontFamily=Times New Roman;fontSize=13;endArrow=open;endFill=0;" edge="1" parent="1">
          <mxGeometry relative="1" as="geometry">
            <mxPoint x="485" y="2760" as="targetPoint" />
            <mxPoint x="365" y="2700" as="sourcePoint" />
            <Array as="points">
              <mxPoint x="485" y="2700" />
            </Array>
          </mxGeometry>
        </mxCell>
        <mxCell id="SIjMMrmNhATLVY4MGX8Y-161" value="Нет" style="text;html=1;strokeColor=none;fillColor=none;align=center;verticalAlign=middle;whiteSpace=wrap;rounded=0;fontFamily=Times New Roman;fontSize=13;" vertex="1" parent="1">
          <mxGeometry x="350" y="2660.02" width="60" height="30" as="geometry" />
        </mxCell>
        <mxCell id="SIjMMrmNhATLVY4MGX8Y-168" style="edgeStyle=orthogonalEdgeStyle;rounded=0;orthogonalLoop=1;jettySize=auto;html=1;entryX=0.5;entryY=0;entryDx=0;entryDy=0;fontFamily=Times New Roman;fontSize=13;endArrow=none;endFill=0;" edge="1" parent="1" source="SIjMMrmNhATLVY4MGX8Y-169" target="SIjMMrmNhATLVY4MGX8Y-170">
          <mxGeometry relative="1" as="geometry" />
        </mxCell>
        <mxCell id="SIjMMrmNhATLVY4MGX8Y-169" value="IsSmithNumber := True" style="rounded=0;whiteSpace=wrap;html=1;fontFamily=Times New Roman;fontSize=13;strokeWidth=1;" vertex="1" parent="1">
          <mxGeometry x="425" y="2760.06" width="120" height="60" as="geometry" />
        </mxCell>
        <mxCell id="SIjMMrmNhATLVY4MGX8Y-170" value="SavedNumToCheck := NumToCheck" style="rounded=0;whiteSpace=wrap;html=1;fontFamily=Times New Roman;fontSize=13;strokeWidth=1;" vertex="1" parent="1">
          <mxGeometry x="425" y="2840.06" width="120" height="60" as="geometry" />
        </mxCell>
        <mxCell id="SIjMMrmNhATLVY4MGX8Y-171" style="edgeStyle=orthogonalEdgeStyle;rounded=0;orthogonalLoop=1;jettySize=auto;html=1;entryX=0.5;entryY=0;entryDx=0;entryDy=0;fontFamily=Times New Roman;fontSize=13;endArrow=none;endFill=0;" edge="1" parent="1" target="SIjMMrmNhATLVY4MGX8Y-172">
          <mxGeometry relative="1" as="geometry">
            <mxPoint x="485" y="2899" as="sourcePoint" />
          </mxGeometry>
        </mxCell>
        <mxCell id="SIjMMrmNhATLVY4MGX8Y-174" style="edgeStyle=orthogonalEdgeStyle;rounded=0;orthogonalLoop=1;jettySize=auto;html=1;entryX=0.5;entryY=0;entryDx=0;entryDy=0;fontFamily=Times New Roman;fontSize=13;endArrow=none;endFill=0;" edge="1" parent="1" source="SIjMMrmNhATLVY4MGX8Y-172" target="SIjMMrmNhATLVY4MGX8Y-173">
          <mxGeometry relative="1" as="geometry" />
        </mxCell>
        <mxCell id="SIjMMrmNhATLVY4MGX8Y-172" value="NumToCheck := SumOfDigits1" style="rounded=0;whiteSpace=wrap;html=1;fontFamily=Times New Roman;fontSize=13;strokeWidth=1;" vertex="1" parent="1">
          <mxGeometry x="425" y="2919" width="120" height="60" as="geometry" />
        </mxCell>
        <mxCell id="SIjMMrmNhATLVY4MGX8Y-173" value="5" style="ellipse;whiteSpace=wrap;html=1;aspect=fixed;fontFamily=Times New Roman;fontSize=13;strokeWidth=1;" vertex="1" parent="1">
          <mxGeometry x="455" y="3170" width="60" height="60" as="geometry" />
        </mxCell>
        <mxCell id="SIjMMrmNhATLVY4MGX8Y-177" style="edgeStyle=orthogonalEdgeStyle;rounded=0;orthogonalLoop=1;jettySize=auto;html=1;fontFamily=Times New Roman;fontSize=13;endArrow=open;endFill=0;" edge="1" parent="1" source="SIjMMrmNhATLVY4MGX8Y-176">
          <mxGeometry relative="1" as="geometry">
            <mxPoint x="425" y="420" as="targetPoint" />
          </mxGeometry>
        </mxCell>
        <mxCell id="SIjMMrmNhATLVY4MGX8Y-176" value="5" style="ellipse;whiteSpace=wrap;html=1;aspect=fixed;fontFamily=Times New Roman;fontSize=13;strokeWidth=1;" vertex="1" parent="1">
          <mxGeometry x="570" y="390" width="60" height="60" as="geometry" />
        </mxCell>
        <mxCell id="SIjMMrmNhATLVY4MGX8Y-182" value="" style="strokeWidth=1;html=1;shape=mxgraph.flowchart.annotation_2;align=left;labelPosition=right;pointerEvents=1;fontFamily=Times New Roman;fontSize=13;" vertex="1" parent="1">
          <mxGeometry x="544" y="3170" width="50" height="60" as="geometry" />
        </mxCell>
        <mxCell id="SIjMMrmNhATLVY4MGX8Y-183" value="" style="endArrow=none;dashed=1;html=1;rounded=0;fontFamily=Times New Roman;fontSize=13;entryX=0;entryY=0.5;entryDx=0;entryDy=0;entryPerimeter=0;" edge="1" parent="1" target="SIjMMrmNhATLVY4MGX8Y-182">
          <mxGeometry width="50" height="50" relative="1" as="geometry">
            <mxPoint x="515" y="3200" as="sourcePoint" />
            <mxPoint x="435" y="3210" as="targetPoint" />
          </mxGeometry>
        </mxCell>
        <mxCell id="SIjMMrmNhATLVY4MGX8Y-184" value="" style="strokeWidth=1;html=1;shape=mxgraph.flowchart.annotation_2;align=left;labelPosition=right;pointerEvents=1;fontFamily=Times New Roman;fontSize=13;" vertex="1" parent="1">
          <mxGeometry x="749" y="3170" width="50" height="60" as="geometry" />
        </mxCell>
        <mxCell id="SIjMMrmNhATLVY4MGX8Y-185" value="" style="endArrow=none;dashed=1;html=1;rounded=0;fontFamily=Times New Roman;fontSize=13;entryX=0;entryY=0.5;entryDx=0;entryDy=0;entryPerimeter=0;" edge="1" parent="1" target="SIjMMrmNhATLVY4MGX8Y-184">
          <mxGeometry width="50" height="50" relative="1" as="geometry">
            <mxPoint x="720" y="3200" as="sourcePoint" />
            <mxPoint x="640" y="3210" as="targetPoint" />
          </mxGeometry>
        </mxCell>
        <mxCell id="SIjMMrmNhATLVY4MGX8Y-186" value="К стр.&amp;nbsp;" style="text;html=1;strokeColor=none;fillColor=none;align=center;verticalAlign=middle;whiteSpace=wrap;rounded=0;fontFamily=Times New Roman;fontSize=13;" vertex="1" parent="1">
          <mxGeometry x="575" y="3185" width="60" height="30" as="geometry" />
        </mxCell>
        <mxCell id="SIjMMrmNhATLVY4MGX8Y-187" value="К стр.&amp;nbsp;" style="text;html=1;strokeColor=none;fillColor=none;align=center;verticalAlign=middle;whiteSpace=wrap;rounded=0;fontFamily=Times New Roman;fontSize=13;" vertex="1" parent="1">
          <mxGeometry x="780" y="3185" width="60" height="30" as="geometry" />
        </mxCell>
        <mxCell id="SIjMMrmNhATLVY4MGX8Y-188" value="" style="strokeWidth=1;html=1;shape=mxgraph.flowchart.annotation_2;align=left;labelPosition=right;pointerEvents=1;fontFamily=Times New Roman;fontSize=13;" vertex="1" parent="1">
          <mxGeometry x="499" y="3330" width="50" height="60" as="geometry" />
        </mxCell>
        <mxCell id="SIjMMrmNhATLVY4MGX8Y-189" value="" style="endArrow=none;dashed=1;html=1;rounded=0;fontFamily=Times New Roman;fontSize=13;entryX=0;entryY=0.5;entryDx=0;entryDy=0;entryPerimeter=0;" edge="1" parent="1" target="SIjMMrmNhATLVY4MGX8Y-188">
          <mxGeometry width="50" height="50" relative="1" as="geometry">
            <mxPoint x="470" y="3360" as="sourcePoint" />
            <mxPoint x="390" y="3370" as="targetPoint" />
          </mxGeometry>
        </mxCell>
        <mxCell id="SIjMMrmNhATLVY4MGX8Y-190" value="К стр.&amp;nbsp;" style="text;html=1;strokeColor=none;fillColor=none;align=center;verticalAlign=middle;whiteSpace=wrap;rounded=0;fontFamily=Times New Roman;fontSize=13;" vertex="1" parent="1">
          <mxGeometry x="530" y="3345" width="60" height="30" as="geometry" />
        </mxCell>
        <mxCell id="SIjMMrmNhATLVY4MGX8Y-191" value="" style="strokeWidth=1;html=1;shape=mxgraph.flowchart.annotation_2;align=left;labelPosition=right;pointerEvents=1;fontFamily=Times New Roman;fontSize=13;" vertex="1" parent="1">
          <mxGeometry x="684" y="3809.98" width="50" height="60" as="geometry" />
        </mxCell>
        <mxCell id="SIjMMrmNhATLVY4MGX8Y-192" value="" style="endArrow=none;dashed=1;html=1;rounded=0;fontFamily=Times New Roman;fontSize=13;entryX=0;entryY=0.5;entryDx=0;entryDy=0;entryPerimeter=0;" edge="1" parent="1" target="SIjMMrmNhATLVY4MGX8Y-191">
          <mxGeometry width="50" height="50" relative="1" as="geometry">
            <mxPoint x="655" y="3839.98" as="sourcePoint" />
            <mxPoint x="575" y="3849.98" as="targetPoint" />
          </mxGeometry>
        </mxCell>
        <mxCell id="SIjMMrmNhATLVY4MGX8Y-193" value="К стр.&amp;nbsp;" style="text;html=1;strokeColor=none;fillColor=none;align=center;verticalAlign=middle;whiteSpace=wrap;rounded=0;fontFamily=Times New Roman;fontSize=13;" vertex="1" parent="1">
          <mxGeometry x="715" y="3824.98" width="60" height="30" as="geometry" />
        </mxCell>
        <mxCell id="SIjMMrmNhATLVY4MGX8Y-194" value="" style="strokeWidth=1;html=1;shape=mxgraph.flowchart.annotation_2;align=left;labelPosition=right;pointerEvents=1;fontFamily=Times New Roman;fontSize=13;" vertex="1" parent="1">
          <mxGeometry x="183.94" y="2230" width="50" height="60" as="geometry" />
        </mxCell>
        <mxCell id="SIjMMrmNhATLVY4MGX8Y-195" value="" style="endArrow=none;dashed=1;html=1;rounded=0;fontFamily=Times New Roman;fontSize=13;entryX=0;entryY=0.5;entryDx=0;entryDy=0;entryPerimeter=0;" edge="1" parent="1" target="SIjMMrmNhATLVY4MGX8Y-194">
          <mxGeometry width="50" height="50" relative="1" as="geometry">
            <mxPoint x="154.94" y="2260" as="sourcePoint" />
            <mxPoint x="74.94" y="2270" as="targetPoint" />
          </mxGeometry>
        </mxCell>
        <mxCell id="SIjMMrmNhATLVY4MGX8Y-196" value="К стр.&amp;nbsp;" style="text;html=1;strokeColor=none;fillColor=none;align=center;verticalAlign=middle;whiteSpace=wrap;rounded=0;fontFamily=Times New Roman;fontSize=13;" vertex="1" parent="1">
          <mxGeometry x="214.94" y="2245" width="60" height="30" as="geometry" />
        </mxCell>
        <mxCell id="SIjMMrmNhATLVY4MGX8Y-197" value="" style="strokeWidth=1;html=1;shape=mxgraph.flowchart.annotation_2;align=left;labelPosition=right;pointerEvents=1;fontFamily=Times New Roman;fontSize=13;flipV=1;flipH=1;" vertex="1" parent="1">
          <mxGeometry x="680" y="1850" width="50" height="60" as="geometry" />
        </mxCell>
        <mxCell id="SIjMMrmNhATLVY4MGX8Y-198" value="" style="endArrow=none;dashed=1;html=1;rounded=0;fontFamily=Times New Roman;fontSize=13;entryX=0;entryY=0.5;entryDx=0;entryDy=0;entryPerimeter=0;exitX=0;exitY=0.5;exitDx=0;exitDy=0;" edge="1" parent="1" target="SIjMMrmNhATLVY4MGX8Y-197" source="SIjMMrmNhATLVY4MGX8Y-105">
          <mxGeometry width="50" height="50" relative="1" as="geometry">
            <mxPoint x="590" y="1880" as="sourcePoint" />
            <mxPoint x="510" y="1890" as="targetPoint" />
          </mxGeometry>
        </mxCell>
        <mxCell id="SIjMMrmNhATLVY4MGX8Y-199" value="К стр.&amp;nbsp;" style="text;html=1;strokeColor=none;fillColor=none;align=center;verticalAlign=middle;whiteSpace=wrap;rounded=0;fontFamily=Times New Roman;fontSize=13;" vertex="1" parent="1">
          <mxGeometry x="640" y="1865" width="60" height="30" as="geometry" />
        </mxCell>
        <mxCell id="SIjMMrmNhATLVY4MGX8Y-200" value="" style="strokeWidth=1;html=1;shape=mxgraph.flowchart.annotation_2;align=left;labelPosition=right;pointerEvents=1;fontFamily=Times New Roman;fontSize=13;" vertex="1" parent="1">
          <mxGeometry x="224" y="1150" width="50" height="60" as="geometry" />
        </mxCell>
        <mxCell id="SIjMMrmNhATLVY4MGX8Y-201" value="" style="endArrow=none;dashed=1;html=1;rounded=0;fontFamily=Times New Roman;fontSize=13;entryX=0;entryY=0.5;entryDx=0;entryDy=0;entryPerimeter=0;" edge="1" parent="1" target="SIjMMrmNhATLVY4MGX8Y-200">
          <mxGeometry width="50" height="50" relative="1" as="geometry">
            <mxPoint x="195" y="1180" as="sourcePoint" />
            <mxPoint x="115" y="1190" as="targetPoint" />
          </mxGeometry>
        </mxCell>
        <mxCell id="SIjMMrmNhATLVY4MGX8Y-202" value="К стр.&amp;nbsp;" style="text;html=1;strokeColor=none;fillColor=none;align=center;verticalAlign=middle;whiteSpace=wrap;rounded=0;fontFamily=Times New Roman;fontSize=13;" vertex="1" parent="1">
          <mxGeometry x="255" y="1165" width="60" height="30" as="geometry" />
        </mxCell>
        <mxCell id="SIjMMrmNhATLVY4MGX8Y-203" value="" style="strokeWidth=1;html=1;shape=mxgraph.flowchart.annotation_2;align=left;labelPosition=right;pointerEvents=1;fontFamily=Times New Roman;fontSize=13;" vertex="1" parent="1">
          <mxGeometry x="658" y="690" width="50" height="60" as="geometry" />
        </mxCell>
        <mxCell id="SIjMMrmNhATLVY4MGX8Y-204" value="" style="endArrow=none;dashed=1;html=1;rounded=0;fontFamily=Times New Roman;fontSize=13;entryX=0;entryY=0.5;entryDx=0;entryDy=0;entryPerimeter=0;" edge="1" parent="1" target="SIjMMrmNhATLVY4MGX8Y-203">
          <mxGeometry width="50" height="50" relative="1" as="geometry">
            <mxPoint x="630" y="720" as="sourcePoint" />
            <mxPoint x="549" y="730" as="targetPoint" />
          </mxGeometry>
        </mxCell>
        <mxCell id="SIjMMrmNhATLVY4MGX8Y-205" value="К стр.&amp;nbsp;" style="text;html=1;strokeColor=none;fillColor=none;align=center;verticalAlign=middle;whiteSpace=wrap;rounded=0;fontFamily=Times New Roman;fontSize=13;" vertex="1" parent="1">
          <mxGeometry x="689" y="705" width="60" height="30" as="geometry" />
        </mxCell>
        <mxCell id="SIjMMrmNhATLVY4MGX8Y-206" value="" style="strokeWidth=1;html=1;shape=mxgraph.flowchart.annotation_2;align=left;labelPosition=right;pointerEvents=1;fontFamily=Times New Roman;fontSize=13;" vertex="1" parent="1">
          <mxGeometry x="658" y="390" width="50" height="60" as="geometry" />
        </mxCell>
        <mxCell id="SIjMMrmNhATLVY4MGX8Y-207" value="" style="endArrow=none;dashed=1;html=1;rounded=0;fontFamily=Times New Roman;fontSize=13;entryX=0;entryY=0.5;entryDx=0;entryDy=0;entryPerimeter=0;" edge="1" parent="1" target="SIjMMrmNhATLVY4MGX8Y-206">
          <mxGeometry width="50" height="50" relative="1" as="geometry">
            <mxPoint x="630" y="420" as="sourcePoint" />
            <mxPoint x="549" y="430" as="targetPoint" />
          </mxGeometry>
        </mxCell>
        <mxCell id="SIjMMrmNhATLVY4MGX8Y-208" value="К стр.&amp;nbsp;" style="text;html=1;strokeColor=none;fillColor=none;align=center;verticalAlign=middle;whiteSpace=wrap;rounded=0;fontFamily=Times New Roman;fontSize=13;" vertex="1" parent="1">
          <mxGeometry x="689" y="405" width="60" height="30" as="geometry" />
        </mxCell>
      </root>
    </mxGraphModel>
  </diagram>
</mxfile>
